<svg xmlns="http://www.w3.org/2000/svg">
	<path style="opacity:1;fill:#000000;fill-opacity:1;stroke:none;stroke-width:0.60000002;stroke-linecap:round;stroke-linejoin:round;stroke-miterlimit:4;stroke-dasharray:none;stroke-opacity:1" d="m 11.749975,1038.3622 c -1.20597,0 -2.27246,0.6155 -2.90234,1.5489 l -1.09765,-0.5489 -7,3.5 7,3.5 2.59765,-1.3008 c 5.3e-4,3e-4 10e-4,-2e-4 0.002,0 0.43005,0.1895 0.90182,0.3008 1.40039,0.3008 0.22684,0 0.44707,-0.027 0.66211,-0.068 -0.21425,0.043 -0.43505,0.068 -0.66211,0.068 l -4,2 -6,-3 -1,0.5 7,3.5 7,-3.5 -0.72657,-0.3633 c 0.74425,-0.6427 1.22657,-1.5805 1.22657,-2.6367 0,-1.927 -1.57293,-3.5 -3.5,-3.5 z m 0,1 c 1.38663,0 2.5,1.1134 2.5,2.5 0,1.3867 -1.11337,2.5 -2.5,2.5 -1.38663,0 -2.49999,-1.1133 -2.49999,-2.5 0,-1.3866 1.11336,-2.5 2.49999,-2.5 z m -2.90624,0.5547 c -0.10811,0.1609 -0.19867,0.3336 -0.27931,0.5117 0.0807,-0.1781 0.17124,-0.3509 0.27931,-0.5117 z m -0.35742,0.7109 c -0.0512,0.1346 -0.0945,0.2723 -0.12891,0.4141 0.0345,-0.142 0.0776,-0.2793 0.12891,-0.4141 z m -0.17189,0.5997 c -0.0381,0.2061 -0.0645,0.4179 -0.0645,0.6347 0,0.2202 0.0272,0.4335 0.0664,0.6426 -0.0395,-0.2091 -0.0664,-0.4221 -0.0664,-0.6426 0,-0.2171 0.0262,-0.4283 0.0645,-0.6347 z m 1.92773,0.1347 0,1 3.01563,0 0,-1 z m -1.88867,1.3008 c 0.0352,0.1485 0.0792,0.293 0.13282,0.4336 -0.0539,-0.1407 -0.0974,-0.2849 -0.13282,-0.4336 z m 0.20899,0.6289 c 0.079,0.175 0.1698,0.3436 0.27539,0.502 -0.10587,-0.158 -0.19608,-0.3274 -0.27539,-0.502 z m 0.38672,0.6426 c 0.0782,0.1052 0.1588,0.2089 0.24804,0.3046 -0.0897,-0.096 -0.16946,-0.1994 -0.24804,-0.3046 z m 0.45898,0.5098 c 0.0727,0.066 0.14851,0.1276 0.22656,0.1875 -0.0781,-0.06 -0.15377,-0.1217 -0.22656,-0.1875 z m 0.47461,0.3652 c 0.11667,0.074 0.23982,0.1388 0.36523,0.1992 -0.1257,-0.06 -0.24825,-0.1249 -0.36523,-0.1992 z m 3.6582,0.043 c -0.0144,0.01 -0.0304,0.015 -0.0449,0.023 0.0146,-0.01 0.0305,-0.015 0.0449,-0.023 z m -0.52929,0.2637 c -0.08,0.032 -0.16533,0.05 -0.24805,0.076 0.0828,-0.025 0.16795,-0.045 0.24805,-0.076 z m -11.26172,1.2462 -1,0.5 7,3.5 7,-3.5 -1,-0.5 -6,3 z"/>
</svg>